HIERARCHY
ROOT Hips
{
  OFFSET 179.979 97.3047 303.174
  CHANNELS 6 Xposition Yposition Zposition Zrotation Xrotation Yrotation
  JOINT Spine
  {
    OFFSET 0.000859786 9.92346 -1.22733
    CHANNELS 3 Zrotation Xrotation Yrotation
    JOINT Spine1
    {
      OFFSET 0 11.732 0
      CHANNELS 3 Zrotation Xrotation Yrotation
      JOINT Spine2
      {
        OFFSET 0 13.4588 0
        CHANNELS 3 Zrotation Xrotation Yrotation
        JOINT Neck
        {
          OFFSET 2.54812e-05 15.0278 0.877907
          CHANNELS 3 Zrotation Xrotation Yrotation
          JOINT Head
          {
            OFFSET 0 10.3218 3.14243
            CHANNELS 3 Zrotation Xrotation Yrotation
            End Site
            {
              OFFSET 0 0 0
            }
          }
        }
        JOINT LeftShoulder
        {
          OFFSET 6.10582 9.10629 0.757062
          CHANNELS 3 Zrotation Xrotation Yrotation
          JOINT LeftArm
          {
            OFFSET 0 12.9223 0
            CHANNELS 3 Zrotation Xrotation Yrotation
            JOINT LeftForeArm
            {
              OFFSET 0 27.4047 0
              CHANNELS 3 Zrotation Xrotation Yrotation
              JOINT LeftHand
              {
                OFFSET -1.28204e-05 27.6145 0
                CHANNELS 3 Zrotation Xrotation Yrotation
                End Site
                {
                  OFFSET 0 0 0
                }
              }
            }
          }
        }
        JOINT RightShoulder
        {
          OFFSET -6.1057 9.10638 0.757076
          CHANNELS 3 Zrotation Xrotation Yrotation
          JOINT RightArm
          {
            OFFSET 0 12.9223 0
            CHANNELS 3 Zrotation Xrotation Yrotation
            JOINT RightForeArm
            {
              OFFSET 0 27.4047 0
              CHANNELS 3 Zrotation Xrotation Yrotation
              JOINT RightHand
              {
                OFFSET 1.28428e-05 27.6145 1.44975e-05
                CHANNELS 3 Zrotation Xrotation Yrotation
                End Site
                {
                  OFFSET 0 0 0
                }
              }
            }
          }
        }
      }
    }
  }
  JOINT LeftUpLeg
  {
    OFFSET 9.12387 -6.65719 -0.0554031
    CHANNELS 3 Zrotation Xrotation Yrotation
    JOINT LeftLeg
    {
      OFFSET 0 40.5994 0
      CHANNELS 3 Zrotation Xrotation Yrotation
      JOINT LeftFoot
      {
        OFFSET 0 42.099 0
        CHANNELS 3 Zrotation Xrotation Yrotation
        JOINT LeftToeBase
        {
          OFFSET 0 15.7216 0
          CHANNELS 3 Zrotation Xrotation Yrotation
          End Site
          {
            OFFSET 0 0 0
          }
        }
      }
    }
  }
  JOINT RightUpLeg
  {
    OFFSET -9.12503 -6.6556 -0.0553527
    CHANNELS 3 Zrotation Xrotation Yrotation
    JOINT RightLeg
    {
      OFFSET 0 40.5994 0
      CHANNELS 3 Zrotation Xrotation Yrotation
      JOINT RightFoot
      {
        OFFSET 0 42.099 0
        CHANNELS 3 Zrotation Xrotation Yrotation
        JOINT RightToeBase
        {
          OFFSET 0 15.7216 0
          CHANNELS 3 Zrotation Xrotation Yrotation
          End Site
          {
            OFFSET 0 0 0
          }
        }
      }
    }
  }
}
MOTION
Frames:	20
Frame Time:	0.0333333
-179.76 88.7431 -69.2225 -6.97194 6.66901 -176.351 -2.14164 -2.13485 -0.843044 -4.27105 9.68829 -0.987515 -4.15056 16.2818 -1.01575 7.19166 8.58473 -2.11536 -4.06081 -6.91234 0.627161 -100.836 -15.2683 90.1742 10.0988 49.9127 27.9523 70.4109 -13.1985 0.0355764 5.72319 -21.6558 16.9353 108.978 -12.8223 -90.8199 1.22762 45.732 -51.2085 -48.1156 -19.1907 1.13659 1.72275 -1.54185 -32.4518 170.145 9.91158 -6.46698 -5.198 -55.6401 -3.01099 157.109 83.8797 -144.73 -0.965267 26.367 -3.60229 171.442 35.5183 1.7159 -92.6982 -87.0482 -89.3991 -27.3165 81.7382 24.2859 0.963539 26.3682 3.55536 
-180.461 90.1556 -80.1892 -6.30219 7.11647 -174.966 -1.73477 -2.41031 -1.448 -3.39597 9.15702 -2.34559 -3.11337 15.7458 -2.40741 6.04751 11.0288 -1.51104 -4.46183 -6.94892 1.09743 -99.7747 -15.8358 90.0743 9.39307 52.6693 23.1681 78.493 -9.01482 0.416358 9.92359 -19.6744 21.0661 108.156 -13.3393 -90.6702 7.87462 41.8033 -60.9618 -50.7652 -18.2787 1.10446 0.401963 -0.0723386 -30.1365 171.198 0.66662 -5.68954 -5.15832 -51.7701 -2.19452 83.7212 87.6445 -72.0823 -0.965267 26.367 -3.60229 171.723 36.514 4.92925 -7.82587 -70.3225 -2.0107 -34.5631 80.1779 30.4743 0.963539 26.3682 3.55536 
-181.227 91.4304 -91.4623 -5.44359 7.59594 -173.747 -1.32191 -2.76006 -1.97446 -2.52487 8.46447 -3.5438 -2.10057 15.046 -3.6308 5.33117 13.8044 -0.948988 -4.95803 -7.3661 1.64141 -99.0196 -16.3019 89.9989 6.79103 54.1139 20.9797 85.474 -4.24466 0.78961 11.0734 -18.0902 22.9551 106.769 -13.4974 -90.6121 15.4192 38.9398 -68.9528 -52.8081 -18.3636 1.11105 2.01066 2.23531 -28.7125 173.413 -7.50039 -5.46157 -5.05718 -48.2777 -0.357165 8.2438 80.0203 1.46377 -0.965267 26.367 -3.60229 172.51 33.6827 10.2841 -5.92885 -46.3086 -1.2206 -14.7028 79.4267 14.8475 0.963539 26.3682 3.55536 
-181.968 91.9459 -102.554 -6.05455 7.28473 -171.943 -1.33824 -3.35617 -2.42619 -2.54148 7.2825 -4.45547 -2.01153 13.8566 -4.55327 4.97765 16.408 -0.988189 -5.42267 -6.53326 1.70512 -97.9216 -15.7477 90.1067 3.03385 54.2846 23.7495 90.5438 -2.45305 1.01173 13.2628 -18.4745 24.6937 105.049 -14.0372 -90.4665 23.8209 36.4271 -72.4019 -55.4501 -16.9636 1.05661 3.51915 6.99846 -31.5746 174.502 -11.0393 -5.8408 -2.79174 -50.4801 2.25196 -5.03819 70.2444 7.05311 -0.965267 26.367 -3.60229 171.54 29.6291 10.4969 -0.621439 -23.783 0.809756 -0.360713 81.7799 5.20404 0.963539 26.3682 3.55536 
-182.729 91.4216 -113.107 -7.65881 7.45444 -169.728 -1.61603 -3.74151 -2.78166 -3.09087 6.52932 -5.09119 -2.48757 13.0972 -5.19484 4.28829 18.3986 -1.23329 -4.87979 -5.26658 1.23208 -96.5245 -15.3526 90.1794 0.0219774 54.2164 27.8276 93.2532 -1.91047 1.11993 12.5984 -17.8491 22.2467 103.047 -14.7847 -90.2934 30.5479 34.3081 -74.6469 -58.5646 -15.7649 1.00821 4.57514 11.7198 -34.8619 174.709 -11.1916 -4.58758 -1.81203 -59.0527 1.95141 -11.5112 67.0897 5.25882 -0.965267 26.367 -3.60229 169.138 27.491 6.66401 2.38221 -12.9309 2.98318 -3.85088 81.2495 10.2384 0.963539 26.3682 3.55536 
-183.394 89.7033 -123.351 -9.19383 8.77364 -167.85 -1.81058 -3.63931 -2.84293 -3.47494 6.74181 -5.15293 -2.86381 13.309 -5.26027 3.77179 18.7135 -1.76855 -4.53437 -5.7405 0.40441 -96.0628 -14.542 90.3024 -1.84758 53.9442 30.331 93.5921 -1.92265 1.13124 11.1472 -15.8364 20.8478 102.122 -16.0693 -90.0297 33.008 32.4904 -74.5113 -60.4161 -14.6102 0.961658 6.30603 16.0568 -32.6373 175.523 -8.69881 -4.5711 -1.19905 -74.2876 2.48628 -13.245 71.5897 7.26441 -0.965267 26.367 -3.60229 168.02 27.3625 8.96763 1.15583 -17.7648 1.87414 1.53939 83.6352 5.85453 0.963539 26.3682 3.55536 
-183.971 88.731 -132.335 -8.23296 11.7532 -167.375 -1.4007 -2.92693 -2.5397 -2.6465 8.14502 -4.65654 -2.09059 14.7172 -4.76735 2.67274 16.5926 -2.21977 -3.15963 -5.54015 -0.769828 -96.1624 -14.9905 90.2355 0.0939592 54.9375 29.6991 91.0586 -2.21218 1.03641 10.1439 -14.6209 20.2076 102.78 -16.4667 -89.9373 30.5262 33.3939 -73.2792 -59.8436 -15.1946 0.984834 4.80439 16.2161 -28.3128 177.978 -3.5755 -6.97818 119.819 -87.6766 121.453 -5.59641 74.2637 3.08135 -0.965267 26.367 -3.60229 170.245 27.3073 10.8248 -0.825377 -26.7246 -0.31642 4.49793 67.7421 0.788348 0.963539 26.3682 3.55536 
-184.319 87.1044 -140.44 -6.2028 14.624 -168.152 -0.661793 -2.07277 -1.96427 -1.17267 9.82192 -3.73079 -0.723241 16.402 -3.8328 1.82084 13.2064 -2.81011 -2.50994 -4.97571 -1.8346 -97.3031 -15.5702 90.1405 4.89529 56.3475 27.0058 85.417 -3.69377 0.805225 8.5242 -13.9447 23.0573 105.203 -16.3097 -89.9355 22.9585 34.6329 -68.4797 -56.2158 -15.3576 0.993651 3.74288 10.6533 -26.1684 -178.294 5.50401 -8.78321 170.205 -70.9371 171.857 0.917293 76.7169 0.743484 -0.965267 26.367 -3.60229 173.3 30.7767 9.42819 -0.145395 -42.7709 -0.163748 -3.39225 62.5835 0.39812 0.963539 26.3682 3.55536 
-184.802 85.902 -147.814 -3.72621 16.9033 -170.128 0.1966 -1.18839 -1.23544 0.525962 11.5667 -2.55837 0.837492 18.1544 -2.6376 1.78944 10.7211 -3.65519 -2.46737 -5.59395 -2.76305 -100.332 -15.9687 90.0439 13.1108 57.329 26.2037 74.6955 -10.8868 0.23944 7.6386 -14.977 24.709 107.822 -13.9581 -90.5063 10.2328 36.3255 -64.8894 -46.5519 -17.6588 1.06866 -0.695136 2.0725 -21.1748 -174.881 17.4686 -11.028 172.604 -57.6141 175.855 3.02486 81.1327 1.775 -0.965267 26.367 -3.60229 176.013 30.3152 12.2388 -1.93582 -54.4636 -3.74642 -7.24388 70.7533 -1.74135 0.963539 26.3682 3.55536 
-185.377 86.0884 -154.567 -3.28326 17.5984 -171.657 0.411899 -0.694074 -0.706314 0.918952 12.5546 -1.57303 1.11214 19.1465 -1.62495 1.33315 10.3559 -4.19762 -1.99244 -6.43702 -3.56776 -101.942 -15.5752 90.1069 17.7965 58.1638 28.374 61.9224 -16.4998 -0.310688 3.39261 -19.0336 19.5904 108.675 -10.4071 -91.4501 -0.629857 37.6928 -56.1734 -40.7715 -19.479 1.12035 1.52407 -1.42859 -25.9389 -175.121 31.9032 -12.7879 173.403 -52.6516 175.607 11.7419 82.3335 -5.99296 -0.965267 26.367 -3.60229 176.606 27.6695 12.1208 -2.46673 -60.0791 -4.72478 -8.38339 77.3056 -0.791756 0.963539 26.3682 3.55536 
-186.281 87.0785 -160.843 -4.15028 17.9614 -173.958 0.135783 -0.438845 -0.0699336 0.283677 13.0715 -0.190293 0.308383 19.6659 -0.196594 2.16693 11.7019 -4.71191 -1.81228 -6.28567 -3.85215 -102.057 -14.8137 90.2621 13.9234 57.3093 34.7746 56.8093 -17.0637 -0.448196 -1.58662 -19.995 5.30917 108.32 -9.68691 -91.6213 -8.24477 38.8487 -41.2392 -46.4677 -19.8491 1.16506 -0.277386 -2.77163 -33.0268 -176.048 43.425 -14.3065 173.655 -55.7542 174.963 23.4415 84.6524 -17.1377 -0.965267 26.367 -3.60229 176.154 24.2016 10.2677 -2.2378 -62.7789 -4.62618 -10.244 80.7047 0.928893 0.963539 26.3682 3.55536 
-187.243 89.2499 -166.868 -4.01357 16.902 -176.579 -0.0102617 -0.594937 0.47963 -0.0784182 12.7592 0.9725 -0.19572 19.3527 1.00549 2.43913 11.5604 -5.35858 -2.0004 -5.4022 -4.38083 -101.459 -16.2069 89.9841 7.18019 55.2618 43.5592 59.1406 -16.2653 -0.364567 -2.6571 -18.7166 2.24655 105.994 -10.3977 -91.3413 -13.8567 41.0756 -31.4894 -57.2424 -19.5932 1.16466 -2.50811 -9.47724 -31.3378 -175.166 52.2638 -14.2578 172.972 -66.0878 173.267 32.0848 85.7755 -26.8369 -0.965267 26.367 -3.60229 176.473 20.3221 8.21756 -1.59382 -61.0886 -4.28444 -9.18918 81.3061 -0.00518852 0.963539 26.3682 3.55536 
-188.253 92.4245 -173.172 -3.70281 16.3478 -178.045 -0.130629 -0.767163 0.842094 -0.363153 12.4123 1.74643 -0.57445 19.0036 1.8041 2.52807 13.7523 -5.91106 -1.16873 -7.23415 -5.07682 -101.093 -16.3085 89.9688 0.102525 52.5699 50.6599 60.96 -15.7725 -0.303197 -0.0949945 -16.4879 9.86941 105.155 -10.0213 -91.3929 -13.0896 42.2785 -22.4258 -71.6877 -14.8787 0.936811 -4.22474 -11.7089 -32.4603 -175.532 54.3153 -11.3521 167.29 -82.8204 166.223 33.8606 84.1854 -27.5465 -0.965267 26.367 -3.60229 176.862 14.025 7.31308 -2.41338 -55.8224 -5.28086 -4.97401 79.2052 -3.40423 0.963539 26.3682 3.55536 
-189.155 96.1905 -179.637 -3.21566 15.1965 -179.182 -0.249338 -1.10849 1.15962 -0.632599 11.7256 2.42564 -0.925394 18.314 2.50187 3.11639 14.6174 -6.46905 -0.438367 -6.93381 -5.55693 -99.2109 -16.2363 90.008 -5.30921 52.0126 55.8467 61.0752 -15.1755 -0.276174 1.16937 -14.7875 12.8301 104.403 -10.4397 -91.2666 -11.3605 43.8762 -16.3928 -82.404 -8.39495 0.633137 -6.61245 -9.43724 -36.9056 -175.889 52.2428 -6.29641 -2.72045 -76.9008 -1.59148 6.02048 75.3383 -1.31253 -0.965267 26.367 -3.60229 177.732 7.56309 4.61949 -1.34898 -48.0303 -3.55747 -4.17397 73.3396 -2.81102 0.963539 26.3682 3.55536 
-190.158 99.6649 -186.374 -2.01179 14.2652 178.995 -0.219374 -1.5186 1.41253 -0.586238 10.9045 2.92011 -0.937352 17.4902 3.00657 3.81323 16.8882 -6.53099 0.414353 -7.9361 -5.47404 -98.101 -16.3066 90.0109 -10.1342 50.9592 59.6499 61.0919 -14.5238 -0.249808 0.0665024 -12.3508 10.7815 103.898 -10.753 -91.178 -9.2708 44.5002 -16.117 -87.4283 -4.04972 0.446743 -8.36137 -9.92537 -35.0369 -175.049 47.0624 -1.77303 -3.63199 -57.5628 1.29133 -4.97032 62.6023 5.65148 -0.965267 26.367 -3.60229 178.851 3.22374 1.43203 -0.526018 -43.14 -1.77586 -1.39537 64.6561 -1.66737 0.963539 26.3682 3.55536 
-191.092 102.015 -192.775 -0.975926 12.8926 176.363 -0.133681 -2.03141 1.58041 -0.412717 9.88073 3.22352 -0.798371 16.4645 3.31183 2.6217 18.7349 -5.79644 1.20854 -8.01754 -5.24928 -97.5479 -16.3125 90.0176 -15.1069 49.9953 62.9764 61.9743 -14.2371 -0.218044 -0.683066 -9.95632 9.90885 103.376 -10.4131 -91.2307 -6.27021 44.6526 -19.078 -89.1271 -2.27388 0.374447 -7.73027 -10.5777 -32.4286 -173.511 42.963 1.23329 -4.0872 -45.8621 2.09542 -8.17917 53.3238 4.71705 -0.965267 26.367 -3.60229 179.233 4.08042 1.55864 -2.33937 -46.4897 -2.29426 5.42921 61.2924 -0.124803 0.963539 26.3682 3.55536 
-191.976 103.479 -198.64 -0.465629 12.959 173.333 -0.21715 -1.99213 1.6195 -0.586683 9.95647 3.33033 -0.985264 16.5395 3.422 2.20702 18.3705 -4.67728 1.28178 -9.03359 -4.24528 -97.3282 -16.6395 89.9677 -17.8964 49.0724 63.9864 63.5423 -14.0436 -0.173498 -0.298281 -9.19992 12.3879 102.806 -9.82379 -91.3294 -4.41903 45.4951 -22.2322 -88.1538 -2.96153 0.405409 -7.47712 -10.2667 -32.1347 -172.594 37.8135 0.722735 -3.43452 -41.3428 2.43402 -9.17554 47.6413 3.18346 -0.965267 26.367 -3.60229 178.572 7.85196 1.98626 -3.85506 -58.7168 -5.01493 9.56248 63.9677 -2.00028 0.963539 26.3682 3.55536 
-192.895 103.819 -204.339 -0.856007 13.8257 170.822 -0.548434 -1.69825 1.46764 -1.25483 10.5351 3.14028 -1.63168 17.1194 3.23046 2.09207 16.6599 -3.76582 1.06384 -8.38395 -3.32349 -97.5221 -17.2847 89.8587 -15.8344 48.2929 62.8588 64.1933 -13.8759 -0.150768 0.372444 -10.6515 13.3232 103.69 -9.62923 -91.412 -3.64424 45.6804 -24.9034 -85.2104 -5.26962 0.505217 -7.7464 -11.2158 -33.6681 -173.233 33.6357 0.947598 -5.15522 -45.4456 0.97993 -8.59083 58.4142 5.01179 -0.965267 26.367 -3.60229 177.533 13.7382 1.91368 -11.0024 -75.7181 -11.74 8.13994 68.0672 -1.69464 0.963539 26.3682 3.55536 
-193.721 103.6 -209.567 -2.0467 14.6052 169.054 -1.02389 -1.43213 1.18217 -2.20288 11.0568 2.73356 -2.53157 17.6435 2.81476 2.34941 15.3189 -3.2909 -0.0668594 -8.83473 -2.58151 -98.1903 -17.0115 89.8898 -11.3748 47.3672 60.6433 63.8345 -14.5224 -0.185745 0.438117 -12.2632 14.1367 104.169 -9.84916 -91.3868 -3.7862 47.0906 -28.151 -79.4867 -9.50136 0.693298 -7.52039 -13.6389 -34.2437 -174.364 30.7948 -2.26226 -5.03038 -50.4077 1.39278 -10.5091 68.6775 8.69759 -0.965267 26.367 -3.60229 176.671 21.0449 1.53058 -130.432 -85.8777 -130.317 1.24334 73.14 1.0527 0.963539 26.3682 3.55536 
-194.455 103.534 -214.255 -3.35064 14.652 169.522 -1.54247 -1.17439 0.528225 -3.20084 11.5733 1.60317 -3.39337 18.1652 1.65194 3.7074 13.0163 -3.06535 -1.18252 -9.08736 -1.76219 -98.4155 -15.9963 90.0598 -2.61378 46.8793 56.2249 60.0835 -15.9519 -0.330934 0.938075 -13.7402 14.4709 104.893 -10.3742 -91.3014 -5.63407 49.7354 -30.7293 -70.923 -14.9507 0.942359 -6.17221 -18.044 -31.0142 -175.924 29.5575 -5.19277 -4.43035 -54.3601 2.88619 -12.3579 73.9037 13.5944 -0.965267 26.367 -3.60229 175.45 29.3555 3.54716 -167.683 -73.3623 -167.24 -9.14086 78.1234 6.66587 0.963539 26.3682 3.55536 
